<svg width="15" height="13" viewBox="0 0 15 13" fill="none" xmlns="http://www.w3.org/2000/svg">
<path d="M6.9254 1.19665C6.16559 0.433249 5.13371 0.0028267 4.05663 1.3873e-05C2.97956 -0.00279895 1.94544 0.422228 1.18165 1.18165C0.422228 1.94544 -0.00279895 2.97956 1.3873e-05 4.05663C0.0028267 5.13371 0.433249 6.16559 1.19665 6.9254L7.0804 12.8104C7.19761 12.9276 7.35655 12.9934 7.52228 12.9934C7.68801 12.9934 7.84695 12.9276 7.96415 12.8104L13.8179 6.9604C14.5769 6.19666 15.0017 5.16282 14.9989 4.08605C14.9961 3.00928 14.5659 1.97767 13.8029 1.2179C13.4265 0.838778 12.9791 0.537605 12.4862 0.331625C11.9933 0.125646 11.4646 0.0189044 10.9304 0.0175111C10.3962 0.0161178 9.86694 0.1201 9.37296 0.323506C8.87899 0.526912 8.42999 0.825746 8.05165 1.2029L7.4929 1.7629L6.9254 1.19665Z" fill="black"/>
</svg>
