<svg width="15" height="13" viewBox="0 0 15 13" fill="none" xmlns="http://www.w3.org/2000/svg">
<path d="M4.05566 0.5C5.00006 0.502555 5.90507 0.880439 6.57129 1.5498L6.57227 1.55078L7.13965 2.11719L7.49414 2.46973L7.84668 2.11621L8.4043 1.55664C8.73607 1.2259 9.1303 0.964503 9.56348 0.786133C9.99653 0.607813 10.4604 0.516406 10.9287 0.517578C11.397 0.5188 11.8608 0.612442 12.293 0.792969C12.7252 0.973597 13.1182 1.23785 13.4482 1.57031L13.4502 1.57227C14.1192 2.23841 14.4964 3.14286 14.499 4.08691C14.5015 5.03043 14.1295 5.93685 13.4648 6.60645L7.61035 12.457C7.58698 12.4803 7.55541 12.4931 7.52246 12.4932C7.48931 12.4932 7.45703 12.4805 7.43359 12.457L1.5498 6.57227V6.57129L1.42773 6.44336C0.834595 5.79153 0.502396 4.94113 0.5 4.05566C0.497536 3.11209 0.869467 2.20573 1.53418 1.53613C2.20396 0.8702 3.11117 0.497533 4.05566 0.5Z" stroke="black"/>
</svg>
