<?xml version="1.0" encoding="UTF-8"?>
<svg id="Calque_2" data-name="Calque 2" xmlns="http://www.w3.org/2000/svg" viewBox="0 0 582.92 406.4">
  <defs>
    <style>
      .cls-1 {
        fill: #141414;
      }
    </style>
  </defs>
  <g id="_1" data-name="1">
    <g>
      <path class="cls-1" d="m264.81,309.49c-10.06,0-38.62-5.02-135.52-42.61-58.47-22.68-113.89-46.43-114.44-46.67-1.61-.69-2.74-2.17-2.98-3.9-.24-1.73.44-3.46,1.79-4.57,14.18-11.56,82.48-64.03,147.75-112.81C291.53,1.69,300.13.52,303.37.08c10.64-1.44,88.26,17.66,134.69,30.04,23.57,6.29,57.49,15.67,85.24,24.66,40.75,13.21,42.86,17.47,44.13,20.02,1.21,2.43.77,5.22-1.12,7.12-6.04,6.06-73.22,61.89-140.12,115-90.12,71.56-142.85,109.28-156.73,112.1-.97.2-2.31.47-4.65.47ZM26.48,214.31c88.36,37.64,220.14,89.17,240.99,84.91,26.84-5.45,256.35-192.99,288.53-221.41-11.03-6.01-51.5-19.7-123.07-38.71-67.49-17.93-121.51-29.69-128.14-29.13-2.96.82-21.71,10.47-138.84,98.04-57.5,42.99-117.2,88.73-139.48,106.29Z"/>
      <path class="cls-1" d="m22.78,294.84c-1.92,0-3.75-1.11-4.57-2.98-14.61-32.99,3.28-59.48,9.11-66.81,1.72-2.16,4.86-2.52,7.03-.8,2.16,1.72,2.52,4.86.8,7.03-6.34,7.97-19.79,29.44-7.79,56.53,1.12,2.52-.02,5.48-2.55,6.6-.66.29-1.35.43-2.02.43Z"/>
      <path class="cls-1" d="m274.22,379.47c-.77,0-1.33-.19-1.91-.38-10.02-3.36-212.1-72.72-214.14-73.42-2.61-.9-4-3.74-3.11-6.35.9-2.61,3.74-4,6.35-3.11,1.99.68,193.79,66.52,212.93,73.01,5.16-2,29.62-16.63,141.78-100.46,65.07-48.64,128.51-97.3,129.14-97.79,2.19-1.68,5.33-1.27,7.01.92,1.68,2.19,1.27,5.33-.92,7.01-.66.51-66.87,51.29-133.46,101.02-39.13,29.22-70.74,52.36-93.96,68.78-37.69,26.67-46.09,30.77-49.71,30.77Z"/>
      <path class="cls-1" d="m423.17,248.98c-.11,0-.21,0-.31,0-6.5-.1-33.7-.16-33.98-.16-2.76,0-5-2.25-4.99-5.01,0-2.76,2.24-4.99,5-4.99,1.11,0,26.69.06,33.79.16,7.09-2.08,45.17-32.89,52.37-39.5.75-2.29-1.11-10.84-3.93-17.95-1.02-2.57.23-5.47,2.8-6.49,2.57-1.02,5.47.23,6.49,2.8,3.28,8.26,7.87,22.97,1.69,28.73-2.56,2.39-14.92,12.73-27.46,22.48-24.63,19.15-29.16,19.94-31.48,19.94Z"/>
      <path class="cls-1" d="m508.93,182.98c-.94,0-3.9-.16-23.97-7.62-1.74-.65-2.98-2.2-3.22-4.04-.24-1.84.56-3.66,2.08-4.73l64.93-45.77c1.15-.81,2.59-1.1,3.96-.79,2.04.45,12.37,3.03,15.7,9.55,1.37,2.7,1.44,5.64.18,8.52-.69,1.58-2.79,6.4-29.47,25.87-6.22,4.54-12.86,9.18-18.21,12.72-9.48,6.28-10.46,6.29-11.93,6.3h-.06Zm-11.5-13.75c4.71,1.65,8.93,3.05,10.93,3.57,7.99-4.34,47.82-32.68,51.1-38.77-.58-1.07-3.65-2.68-6.85-3.69l-55.18,38.89Z"/>
      <path class="cls-1" d="m274.87,331.43c-1.54,0-3.05-.71-4.03-2.04-1.64-2.22-1.16-5.35,1.07-6.99l212.74-156.36c2.22-1.63,5.35-1.16,6.99,1.07,1.64,2.22,1.16,5.35-1.07,6.99l-212.74,156.36c-.89.66-1.93.97-2.96.97Z"/>
      <path class="cls-1" d="m548.55,128.02c-2.28,0-4.34-1.57-4.87-3.89-2.25-9.82.18-26.93.95-30.97.52-2.71,3.14-4.49,5.85-3.97,2.71.52,4.49,3.14,3.97,5.85-1.1,5.77-2.58,20.04-1.02,26.87.62,2.69-1.07,5.37-3.76,5.99-.37.09-.75.13-1.12.13Z"/>
      <path class="cls-1" d="m549.33,179.09c-2.3,0-4.37-1.6-4.88-3.94-.26-1.19-2.5-11.86-1.39-18.94.43-2.73,2.99-4.59,5.71-4.17,2.73.43,4.59,2.99,4.16,5.71-.7,4.44.69,12.52,1.29,15.26.58,2.7-1.13,5.36-3.83,5.95-.36.08-.71.12-1.07.12Z"/>
      <path class="cls-1" d="m274.93,373.55c-2.27,0-4.33-1.56-4.87-3.87-3.2-13.74-6.09-46.96-3.37-62.96.46-2.72,3.04-4.56,5.77-4.09,2.72.46,4.56,3.04,4.09,5.77-2.44,14.38.23,46,3.26,59.02.63,2.69-1.05,5.38-3.74,6-.38.09-.76.13-1.14.13Z"/>
      <path class="cls-1" d="m268.76,333.23c-.53,0-1.06-.08-1.58-.26l-186.82-62.42c-2.62-.87-4.03-3.71-3.16-6.33.88-2.62,3.71-4.03,6.33-3.16l186.82,62.42c2.62.87,4.03,3.71,3.16,6.33-.7,2.09-2.65,3.42-4.74,3.42Z"/>
      <path class="cls-1" d="m39.27,332.08c-.58,0-1.16-.1-1.73-.31-.3-.11-7.5-2.77-14.9-6.42-11.93-5.88-17.22-10.61-17.69-15.84-.14-1.54.04-5.41,4.7-8.16,10.76-6.35,34.14-35.77,38.73-44.11,1.33-2.42,4.37-3.3,6.79-1.97,2.42,1.33,3.3,4.37,1.97,6.79-4.98,9.05-28.26,38.74-41.44,47.29,2.94,2.93,12.05,7.81,22,11.76,7.74-9.44,32.95-40.86,38.47-55.91.95-2.59,3.82-3.92,6.42-2.97,2.59.95,3.92,3.82,2.97,6.42-7.1,19.38-41.02,59.92-42.46,61.63-.97,1.15-2.38,1.79-3.83,1.79Z"/>
      <path class="cls-1" d="m79.74,269.56c-.56,0-1.13-.1-1.69-.3l-43.32-15.61c-2.6-.94-3.95-3.8-3.01-6.4.94-2.6,3.8-3.94,6.4-3.01l43.32,15.61c2.6.94,3.95,3.8,3.01,6.4-.73,2.04-2.66,3.31-4.7,3.31Z"/>
      <path class="cls-1" d="m275.47,406.4c-.69,0-1.2-.12-1.69-.23-12.01-2.73-145.08-55.26-223.33-86.34-2.57-1.02-3.82-3.93-2.8-6.49,1.02-2.57,3.93-3.82,6.49-2.8,130.26,51.73,210.57,82.84,221.32,85.75,4.12-.98,23.44-11.21,112.8-79.88,56.13-43.14,117.95-92.38,154.88-121.79,16.36-13.03,26.52-21.12,29.31-23.21-2.72-3.02-13.7-8.31-24.65-11.75-2.63-.83-4.1-3.63-3.27-6.27.83-2.63,3.63-4.1,6.27-3.27,11.29,3.54,30.47,10.89,32,20.26.32,1.96.21,5.72-4.14,8.88-2.03,1.47-13.46,10.58-29.29,23.19-37.91,30.2-101.36,80.74-158.42,124.51-94.33,72.37-110.14,79.46-115.49,79.46Z"/>
      <path class="cls-1" d="m11.21,303.84c-2.07,0-4.01-1.3-4.73-3.37-17.1-49.49,4.94-86.59,5.88-88.14,1.44-2.36,4.51-3.11,6.87-1.67,2.36,1.43,3.11,4.5,1.68,6.86-.21.34-20.49,34.81-4.98,79.69.9,2.61-.48,5.46-3.09,6.36-.54.19-1.09.28-1.63.28Z"/>
      <path class="cls-1" d="m308.53,333.45c-.17,0-.32,0-.47,0-9.48-.3-26.2-3.39-26.9-3.52-2.71-.5-4.51-3.11-4-5.83.5-2.71,3.11-4.51,5.83-4,.16.03,16.38,3.03,25.15,3.35,6.9-1.44,48.83-29.27,87.19-56.55l-10.79-14.45c-1.65-2.21-1.2-5.35,1.02-7,2.21-1.65,5.35-1.2,7,1.02l13.85,18.55c.8,1.08,1.14,2.43.93,3.76-.21,1.33-.94,2.52-2.03,3.3-.21.15-21.55,15.4-43.74,30.41-43.62,29.51-50.12,30.98-53.02,30.98Z"/>
      <path class="cls-1" d="m298.78,331.81c-1.64,0-2.98-1.32-3-2.96l-.02-.81c-.03-1.25,0-1.62.42-2.78.13-.37.33-.93.63-1.92.48-1.58,2.16-2.47,3.75-1.99,1.58.48,2.48,2.16,1.99,3.75-.34,1.12-.57,1.76-.72,2.17-.03.09-.06.16-.08.22,0,.11,0,.24,0,.41l.02.87c.02,1.66-1.3,3.02-2.96,3.04h-.04Z"/>
      <path class="cls-1" d="m297.82,331.7c-.11,0-.22,0-.34-.02-1.65-.18-2.83-1.67-2.65-3.31.82-7.38,2.06-14.94,5.51-20.27.9-1.39,2.76-1.79,4.15-.89,1.39.9,1.79,2.76.89,4.15-3.16,4.87-4.09,13.2-4.59,17.67-.17,1.53-1.47,2.67-2.98,2.67Z"/>
      <path class="cls-1" d="m305.73,329.07c-.06,0-.11,0-.17,0-1.65-.09-2.92-1.51-2.83-3.16.3-5.41,1.46-10.66,2.57-15.74.41-1.85.81-3.7,1.18-5.56.32-1.63,1.9-2.69,3.52-2.36,1.63.32,2.68,1.9,2.36,3.52-.37,1.9-.79,3.8-1.21,5.69-1.11,5.07-2.17,9.86-2.44,14.79-.09,1.6-1.41,2.83-2.99,2.83Z"/>
      <path class="cls-1" d="m315.45,326.05s-.07,0-.11,0c-1.66-.06-2.95-1.45-2.89-3.1.16-4.7,1.49-9.19,2.78-13.54,1.33-4.48,2.58-8.7,2.53-12.89-.02-1.66,1.3-3.02,2.96-3.04,1.7,0,3.02,1.3,3.04,2.96.07,5.1-1.38,9.97-2.78,14.68-1.24,4.17-2.4,8.1-2.54,12.04-.06,1.62-1.39,2.9-3,2.9Z"/>
      <path class="cls-1" d="m326.45,320.25c-.25,0-.5-.03-.75-.1-1.6-.41-2.57-2.05-2.15-3.66.85-3.28,1.34-6.92,1.86-10.77,1.03-7.67,2.1-15.59,6.19-21.89.9-1.39,2.76-1.79,4.15-.89,1.39.9,1.79,2.76.88,4.15-3.35,5.17-4.33,12.42-5.27,19.43-.52,3.86-1.06,7.85-1.99,11.47-.35,1.35-1.57,2.25-2.9,2.25Z"/>
      <path class="cls-1" d="m423.29,245.86c-.16,0-.31-.01-.47-.04-1.64-.26-2.75-1.79-2.5-3.43.78-4.96,1.87-9.91,2.92-14.7.63-2.86,1.28-5.82,1.85-8.72.32-1.63,1.9-2.69,3.52-2.36,1.63.32,2.68,1.9,2.36,3.52-.58,2.97-1.24,5.96-1.88,8.85-1.03,4.7-2.1,9.57-2.86,14.35-.23,1.48-1.51,2.53-2.96,2.53Z"/>
      <path class="cls-1" d="m432.42,244.54c-1.38,0-2.63-.96-2.93-2.37-1.79-8.36,2.7-28.15,6.98-34.75.9-1.39,2.76-1.79,4.15-.89,1.39.9,1.79,2.76.89,4.15-3.72,5.74-7.45,24.11-6.14,30.23.35,1.62-.69,3.21-2.31,3.56-.21.04-.42.07-.63.07Z"/>
      <path class="cls-1" d="m442.57,237.66c-.11,0-.22,0-.34-.02-1.65-.18-2.83-1.67-2.65-3.31.55-4.88,1.66-9.67,2.73-14.3,1.32-5.66,2.56-11.02,2.87-16.57.09-1.65,1.49-2.91,3.16-2.83,1.65.09,2.92,1.51,2.83,3.16-.34,6.07-1.7,11.93-3.01,17.59-1.08,4.67-2.11,9.07-2.61,13.61-.17,1.53-1.47,2.67-2.98,2.67Z"/>
      <path class="cls-1" d="m456.09,221.58s-.07,0-.11,0c-1.66-.06-2.95-1.45-2.89-3.1.17-5.05,1.47-9.97,2.72-14.73,1.35-5.12,2.62-9.97,2.55-14.82-.02-1.66,1.3-3.02,2.96-3.04,1.68-.01,3.02,1.3,3.04,2.96.07,5.67-1.36,11.14-2.75,16.43-1.22,4.65-2.37,9.03-2.52,13.42-.06,1.62-1.39,2.9-3,2.9Z"/>
      <path class="cls-1" d="m506.79,175.27c-.32,0-.65-.05-.97-.16-1.57-.54-2.4-2.24-1.87-3.81,1.34-3.91,2.04-10.17.91-12.1-.84-1.43-.36-3.27,1.06-4.11,1.43-.84,3.27-.36,4.11,1.06,2.82,4.8.67,13.96-.4,17.08-.43,1.25-1.59,2.03-2.84,2.03Z"/>
      <path class="cls-1" d="m520.99,174.12s-.07,0-.1,0c-1.66-.06-2.95-1.45-2.89-3.1.13-3.74,1.55-15.04,2.32-21.11.21-1.69.36-2.86.39-3.13l2.97.28,1.08-2.87c2.21.84,1.95,3.02,1.82,4.07l-.3,2.4c-.7,5.55-2.15,17.1-2.27,20.57-.06,1.62-1.39,2.9-3,2.9Z"/>
      <path class="cls-1" d="m533.89,165.4c-.11,0-.22,0-.34-.02-1.65-.18-2.83-1.67-2.65-3.31.39-3.5,1.07-6.96,1.72-10.31.91-4.64,1.77-9.02,1.92-13.48.06-1.66,1.44-2.97,3.1-2.89,1.66.06,2.95,1.45,2.89,3.1-.17,4.94-1.11,9.76-2.03,14.42-.63,3.23-1.29,6.56-1.65,9.82-.17,1.53-1.47,2.67-2.98,2.67Z"/>
      <path class="cls-1" d="m151.78,311.61c-.28,0-.56-.04-.85-.12-6.56-1.92-13.2-3.69-20.23-5.56-19.89-5.3-40.45-10.77-58.38-19.77-1.48-.74-2.08-2.55-1.34-4.03.74-1.48,2.55-2.08,4.03-1.34,17.38,8.72,37.64,14.12,57.23,19.34,6.75,1.8,13.74,3.66,20.37,5.6,1.59.47,2.5,2.13,2.04,3.72-.38,1.31-1.58,2.16-2.88,2.16Z"/>
      <path class="cls-1" d="m267.67,348.15c-.28,0-.56-.04-.85-.12-15.68-4.6-31.54-9.45-46.89-14.15-15.33-4.69-31.18-9.54-46.85-14.13-1.59-.47-2.5-2.13-2.03-3.72.47-1.59,2.13-2.5,3.72-2.04,15.7,4.6,31.57,9.46,46.91,14.15,15.33,4.69,31.18,9.54,46.82,14.12,1.59.47,2.5,2.13,2.03,3.72-.38,1.31-1.58,2.16-2.88,2.16Z"/>
      <path class="cls-1" d="m163.55,142c-.88,0-1.75-.39-2.34-1.13-1.04-1.29-.82-3.18.47-4.22,31.79-25.42,137.95-109.87,169.37-129.29,1.41-.87,3.26-.44,4.13.97.87,1.41.44,3.26-.97,4.13-31.93,19.73-146.19,110.81-168.77,128.87-.55.44-1.21.66-1.87.66Z"/>
      <path class="cls-1" d="m56.22,229.49c-.66,0-1.33-.22-1.89-.67-1.29-1.04-1.48-2.93-.44-4.22,6.9-8.49,75.43-65.02,85.58-71.9,1.37-.93,3.24-.57,4.17.8.93,1.37.57,3.24-.8,4.17-11.29,7.66-78.41,63.48-84.29,70.72-.59.73-1.46,1.11-2.33,1.11Z"/>
    </g>
  </g>
</svg>